<mxfile host="app.diagrams.net" agent="Mozilla/5.0 (X11; Linux x86_64; rv:132.0) Gecko/20100101 Firefox/132.0" version="26.1.1">
  <diagram id="Ht1M8jgEwFfnCIfOTk4-" name="Page-1">
    <mxGraphModel dx="813" dy="451" grid="1" gridSize="10" guides="1" tooltips="1" connect="1" arrows="1" fold="1" page="1" pageScale="1" pageWidth="1169" pageHeight="827" math="0" shadow="0">
      <root>
        <mxCell id="0" />
        <mxCell id="1" parent="0" />
        <mxCell id="q3jxpWBxmI74hbCxYRzW-8" value="io.dnajd.mainservice.domain.user.User" style="text;html=1;align=center;verticalAlign=middle;resizable=0;points=[];autosize=1;strokeColor=none;fillColor=none;" parent="1" vertex="1">
          <mxGeometry x="955" y="80" width="50" height="30" as="geometry" />
        </mxCell>
        <mxCell id="q3jxpWBxmI74hbCxYRzW-9" value="&lt;div&gt;Android&amp;nbsp;&lt;/div&gt;&lt;div&gt;Application&lt;/div&gt;&lt;div&gt;&lt;br&gt;&lt;/div&gt;" style="text;html=1;align=center;verticalAlign=middle;resizable=0;points=[];autosize=1;strokeColor=none;fillColor=none;" parent="1" vertex="1">
          <mxGeometry x="1030" y="260.75" width="80" height="60" as="geometry" />
        </mxCell>
        <mxCell id="q3jxpWBxmI74hbCxYRzW-13" value="" style="sketch=0;verticalLabelPosition=bottom;sketch=0;aspect=fixed;html=1;verticalAlign=top;strokeColor=none;fillColor=#000000;align=center;outlineConnect=0;pointerEvents=1;shape=mxgraph.citrix2.authentication_google;" parent="1" vertex="1">
          <mxGeometry x="782.69" y="221.5" width="28.5" height="28.5" as="geometry" />
        </mxCell>
        <mxCell id="q3jxpWBxmI74hbCxYRzW-23" value="" style="sketch=0;verticalLabelPosition=bottom;sketch=0;aspect=fixed;html=1;verticalAlign=top;strokeColor=none;fillColor=#000000;align=center;outlineConnect=0;pointerEvents=1;shape=mxgraph.citrix2.mobile;" parent="1" vertex="1">
          <mxGeometry x="942.12" y="215" width="75.77" height="150" as="geometry" />
        </mxCell>
        <mxCell id="q3jxpWBxmI74hbCxYRzW-25" value="" style="sketch=0;outlineConnect=0;fontColor=#232F3E;gradientColor=none;fillColor=#232F3D;strokeColor=none;dashed=0;verticalLabelPosition=bottom;verticalAlign=top;align=center;html=1;fontSize=12;fontStyle=0;aspect=fixed;pointerEvents=1;shape=mxgraph.aws4.user;" parent="1" vertex="1">
          <mxGeometry x="950" y="121.5" width="60" height="60" as="geometry" />
        </mxCell>
        <mxCell id="q3jxpWBxmI74hbCxYRzW-60" value="Only for per project modifications. Contains RBAC permissions for the current project for the current user, has short expiration date. List of revoked tokens (small due to short expiration date) are kept in spring cache" style="whiteSpace=wrap;html=1;fontSize=8;" parent="1" vertex="1">
          <mxGeometry x="686.19" y="378" width="125" height="70" as="geometry" />
        </mxCell>
        <mxCell id="q3jxpWBxmI74hbCxYRzW-22" value="&lt;div&gt;&lt;font style=&quot;font-size: 10px;&quot;&gt;Google OAuth&amp;nbsp;&lt;/font&gt;&lt;/div&gt;&lt;div&gt;&lt;font style=&quot;font-size: 10px;&quot;&gt;Server&lt;/font&gt;&lt;/div&gt;" style="text;html=1;align=center;verticalAlign=middle;resizable=0;points=[];autosize=1;strokeColor=none;fillColor=none;fontSize=8;" parent="1" vertex="1">
          <mxGeometry x="751.94" y="181.5" width="90" height="40" as="geometry" />
        </mxCell>
        <mxCell id="q3jxpWBxmI74hbCxYRzW-73" value="" style="endArrow=classic;html=1;rounded=0;" parent="1" edge="1">
          <mxGeometry relative="1" as="geometry">
            <mxPoint x="640.62" y="310" as="sourcePoint" />
            <mxPoint x="942.12" y="310" as="targetPoint" />
          </mxGeometry>
        </mxCell>
        <mxCell id="q3jxpWBxmI74hbCxYRzW-74" value="&lt;font style=&quot;font-size: 10px;&quot;&gt;Token for project&lt;/font&gt;" style="edgeLabel;resizable=0;html=1;;align=center;verticalAlign=middle;" parent="q3jxpWBxmI74hbCxYRzW-73" connectable="0" vertex="1">
          <mxGeometry relative="1" as="geometry">
            <mxPoint x="5" as="offset" />
          </mxGeometry>
        </mxCell>
        <mxCell id="q3jxpWBxmI74hbCxYRzW-76" value="" style="endArrow=classic;html=1;rounded=0;" parent="1" edge="1">
          <mxGeometry relative="1" as="geometry">
            <mxPoint x="942.12" y="285" as="sourcePoint" />
            <mxPoint x="640.01" y="285" as="targetPoint" />
          </mxGeometry>
        </mxCell>
        <mxCell id="q3jxpWBxmI74hbCxYRzW-77" value="&lt;font style=&quot;font-size: 10px;&quot;&gt;Request token per project&lt;/font&gt;" style="edgeLabel;resizable=0;html=1;;align=center;verticalAlign=middle;" parent="q3jxpWBxmI74hbCxYRzW-76" connectable="0" vertex="1">
          <mxGeometry relative="1" as="geometry">
            <mxPoint x="9" as="offset" />
          </mxGeometry>
        </mxCell>
        <mxCell id="q3jxpWBxmI74hbCxYRzW-79" value="&lt;font style=&quot;font-size: 8px;&quot;&gt;JWT master token&lt;/font&gt;" style="text;html=1;align=center;verticalAlign=middle;resizable=0;points=[];autosize=1;strokeColor=none;fillColor=none;" parent="1" vertex="1">
          <mxGeometry x="860" y="260.75" width="90" height="30" as="geometry" />
        </mxCell>
        <mxCell id="q3jxpWBxmI74hbCxYRzW-80" value="" style="endArrow=classic;html=1;rounded=0;" parent="1" edge="1">
          <mxGeometry relative="1" as="geometry">
            <mxPoint x="638.51" y="260" as="sourcePoint" />
            <mxPoint x="940.01" y="260" as="targetPoint" />
          </mxGeometry>
        </mxCell>
        <mxCell id="q3jxpWBxmI74hbCxYRzW-81" value="&lt;div&gt;&lt;font style=&quot;font-size: 10px;&quot;&gt;JWT Master Token Per io.dnajd.mainservice.domain.user.User&lt;/font&gt;&lt;/div&gt;" style="edgeLabel;resizable=0;html=1;;align=center;verticalAlign=middle;" parent="q3jxpWBxmI74hbCxYRzW-80" connectable="0" vertex="1">
          <mxGeometry relative="1" as="geometry">
            <mxPoint x="1" as="offset" />
          </mxGeometry>
        </mxCell>
        <mxCell id="q3jxpWBxmI74hbCxYRzW-84" value="" style="endArrow=classic;html=1;rounded=0;" parent="1" edge="1">
          <mxGeometry width="50" height="50" relative="1" as="geometry">
            <mxPoint x="782.12" y="235.25" as="sourcePoint" />
            <mxPoint x="640" y="235" as="targetPoint" />
          </mxGeometry>
        </mxCell>
        <mxCell id="q3jxpWBxmI74hbCxYRzW-85" value="" style="endArrow=none;html=1;rounded=0;" parent="1" edge="1">
          <mxGeometry width="50" height="50" relative="1" as="geometry">
            <mxPoint x="810.62" y="235" as="sourcePoint" />
            <mxPoint x="942.12" y="235" as="targetPoint" />
          </mxGeometry>
        </mxCell>
        <mxCell id="q3jxpWBxmI74hbCxYRzW-91" value="&lt;font style=&quot;font-size: 8px;&quot;&gt;Request OAuth Token&lt;br&gt;&lt;/font&gt;" style="text;html=1;align=center;verticalAlign=middle;resizable=0;points=[];autosize=1;strokeColor=none;fillColor=none;" parent="1" vertex="1">
          <mxGeometry x="847.32" y="210" width="100" height="30" as="geometry" />
        </mxCell>
        <mxCell id="q3jxpWBxmI74hbCxYRzW-94" value="" style="endArrow=classic;html=1;rounded=0;" parent="1" edge="1">
          <mxGeometry relative="1" as="geometry">
            <mxPoint x="942.12" y="339.76" as="sourcePoint" />
            <mxPoint x="640.01" y="339.76" as="targetPoint" />
          </mxGeometry>
        </mxCell>
        <mxCell id="q3jxpWBxmI74hbCxYRzW-95" value="&lt;font style=&quot;font-size: 10px;&quot;&gt;Modify Project&lt;/font&gt;" style="edgeLabel;resizable=0;html=1;;align=center;verticalAlign=middle;" parent="q3jxpWBxmI74hbCxYRzW-94" connectable="0" vertex="1">
          <mxGeometry relative="1" as="geometry">
            <mxPoint x="5" as="offset" />
          </mxGeometry>
        </mxCell>
        <mxCell id="q3jxpWBxmI74hbCxYRzW-97" value="" style="endArrow=none;html=1;rounded=0;" parent="1" target="q3jxpWBxmI74hbCxYRzW-25" edge="1">
          <mxGeometry width="50" height="50" relative="1" as="geometry">
            <mxPoint x="980" y="215" as="sourcePoint" />
            <mxPoint x="1030" y="165" as="targetPoint" />
          </mxGeometry>
        </mxCell>
        <mxCell id="q3jxpWBxmI74hbCxYRzW-102" value="" style="endArrow=none;dashed=1;html=1;dashPattern=1 3;strokeWidth=2;rounded=0;exitX=0.8;exitY=0.055;exitDx=0;exitDy=0;exitPerimeter=0;" parent="1" source="q3jxpWBxmI74hbCxYRzW-60" edge="1">
          <mxGeometry width="50" height="50" relative="1" as="geometry">
            <mxPoint x="720" y="360" as="sourcePoint" />
            <mxPoint x="770" y="320" as="targetPoint" />
          </mxGeometry>
        </mxCell>
        <mxCell id="q3jxpWBxmI74hbCxYRzW-103" value="Master token used for retrieving per project tokens and for everything except project modifications" style="whiteSpace=wrap;html=1;fontSize=8;" parent="1" vertex="1">
          <mxGeometry x="834.82" y="378" width="125" height="51" as="geometry" />
        </mxCell>
        <mxCell id="q3jxpWBxmI74hbCxYRzW-104" value="&lt;div&gt;&lt;font style=&quot;font-size: 8px;&quot;&gt;Token per Project&lt;/font&gt;&lt;/div&gt;" style="text;html=1;align=center;verticalAlign=middle;resizable=0;points=[];autosize=1;strokeColor=none;fillColor=none;" parent="1" vertex="1">
          <mxGeometry x="859.9999999999999" y="320.75" width="90" height="30" as="geometry" />
        </mxCell>
        <mxCell id="q3jxpWBxmI74hbCxYRzW-105" value="" style="endArrow=none;dashed=1;html=1;dashPattern=1 3;strokeWidth=2;rounded=0;" parent="1" edge="1">
          <mxGeometry width="50" height="50" relative="1" as="geometry">
            <mxPoint x="890" y="380" as="sourcePoint" />
            <mxPoint x="820" y="270" as="targetPoint" />
          </mxGeometry>
        </mxCell>
        <mxCell id="q3jxpWBxmI74hbCxYRzW-109" value="" style="shape=image;html=1;verticalAlign=top;verticalLabelPosition=bottom;labelBackgroundColor=#ffffff;imageAspect=0;aspect=fixed;image=https://cdn2.iconfinder.com/data/icons/boxicons-logos/24/bxl-docker-128.png" parent="1" vertex="1">
          <mxGeometry x="440.75" y="121.5" width="58.5" height="58.5" as="geometry" />
        </mxCell>
        <mxCell id="q3jxpWBxmI74hbCxYRzW-116" value="" style="swimlane;startSize=0;" parent="1" vertex="1">
          <mxGeometry x="270" y="180" width="400" height="225" as="geometry" />
        </mxCell>
        <mxCell id="q3jxpWBxmI74hbCxYRzW-11" value="" style="shape=image;html=1;verticalAlign=top;verticalLabelPosition=bottom;labelBackgroundColor=#ffffff;imageAspect=0;image=https://cdn2.iconfinder.com/data/icons/boxicons-logos/24/bxl-spring-boot-128.png;aspect=fixed;" parent="q3jxpWBxmI74hbCxYRzW-116" vertex="1">
          <mxGeometry x="230" y="36.5" width="148.5" height="148.5" as="geometry" />
        </mxCell>
        <mxCell id="q3jxpWBxmI74hbCxYRzW-3" value="&lt;div&gt;MySQL&lt;/div&gt;&lt;div&gt;database&lt;/div&gt;" style="text;html=1;align=center;verticalAlign=middle;resizable=0;points=[];autosize=1;strokeColor=none;fillColor=none;" parent="q3jxpWBxmI74hbCxYRzW-116" vertex="1">
          <mxGeometry x="1.0299999999999998" y="185" width="70" height="40" as="geometry" />
        </mxCell>
        <mxCell id="q3jxpWBxmI74hbCxYRzW-121" value="Spring Backend" style="text;html=1;align=center;verticalAlign=middle;resizable=0;points=[];autosize=1;strokeColor=none;fillColor=none;" parent="q3jxpWBxmI74hbCxYRzW-116" vertex="1">
          <mxGeometry x="249.24999999999997" y="16.5" width="110" height="30" as="geometry" />
        </mxCell>
        <mxCell id="q3jxpWBxmI74hbCxYRzW-123" value="" style="sketch=0;outlineConnect=0;fontColor=#232F3E;gradientColor=none;fillColor=#000000;strokeColor=none;dashed=0;verticalLabelPosition=bottom;verticalAlign=top;align=center;html=1;fontSize=12;fontStyle=0;aspect=fixed;pointerEvents=1;shape=mxgraph.aws4.volume;" parent="q3jxpWBxmI74hbCxYRzW-116" vertex="1">
          <mxGeometry x="9.239999999999998" y="45.05000000000001" width="56.79" height="71.45" as="geometry" />
        </mxCell>
        <mxCell id="q3jxpWBxmI74hbCxYRzW-126" value="&lt;div&gt;Docker&lt;/div&gt;&lt;div&gt;Volume&lt;/div&gt;" style="text;html=1;align=center;verticalAlign=middle;resizable=0;points=[];autosize=1;strokeColor=none;fillColor=none;" parent="q3jxpWBxmI74hbCxYRzW-116" vertex="1">
          <mxGeometry x="6.029999999999999" y="6.5" width="60" height="40" as="geometry" />
        </mxCell>
        <mxCell id="q3jxpWBxmI74hbCxYRzW-127" value="" style="endArrow=classic;startArrow=classic;html=1;rounded=0;" parent="q3jxpWBxmI74hbCxYRzW-116" edge="1">
          <mxGeometry width="50" height="50" relative="1" as="geometry">
            <mxPoint x="241.03" y="86.5" as="sourcePoint" />
            <mxPoint x="65.00000000000003" y="86.5" as="targetPoint" />
          </mxGeometry>
        </mxCell>
        <mxCell id="q3jxpWBxmI74hbCxYRzW-17" value="" style="strokeWidth=2;html=1;shape=mxgraph.flowchart.database;whiteSpace=wrap;" parent="q3jxpWBxmI74hbCxYRzW-116" vertex="1">
          <mxGeometry x="6.030000000000028" y="125" width="60" height="60" as="geometry" />
        </mxCell>
        <mxCell id="q3jxpWBxmI74hbCxYRzW-129" value="" style="endArrow=classic;startArrow=classic;html=1;rounded=0;" parent="q3jxpWBxmI74hbCxYRzW-116" edge="1">
          <mxGeometry width="50" height="50" relative="1" as="geometry">
            <mxPoint x="241.02999999999994" y="146.5" as="sourcePoint" />
            <mxPoint x="65.00000000000003" y="146.5" as="targetPoint" />
          </mxGeometry>
        </mxCell>
        <mxCell id="q3jxpWBxmI74hbCxYRzW-113" value="&lt;div&gt;Flyway used&amp;nbsp;&lt;/div&gt;&lt;div&gt;for migrations&lt;/div&gt;" style="text;html=1;align=center;verticalAlign=middle;resizable=0;points=[];autosize=1;strokeColor=none;fillColor=none;" parent="q3jxpWBxmI74hbCxYRzW-116" vertex="1">
          <mxGeometry x="106.03" y="145" width="100" height="40" as="geometry" />
        </mxCell>
        <mxCell id="q3jxpWBxmI74hbCxYRzW-130" value="&lt;div&gt;Persistent media&lt;/div&gt;&lt;div&gt;storage&lt;br&gt;&lt;/div&gt;" style="text;html=1;align=center;verticalAlign=middle;resizable=0;points=[];autosize=1;strokeColor=none;fillColor=none;" parent="q3jxpWBxmI74hbCxYRzW-116" vertex="1">
          <mxGeometry x="101.03" y="45.05000000000001" width="110" height="40" as="geometry" />
        </mxCell>
        <mxCell id="q3jxpWBxmI74hbCxYRzW-118" value="Docker Containers" style="text;html=1;align=center;verticalAlign=middle;resizable=0;points=[];autosize=1;strokeColor=none;fillColor=none;" parent="1" vertex="1">
          <mxGeometry x="410" y="91.5" width="120" height="30" as="geometry" />
        </mxCell>
        <mxCell id="q3jxpWBxmI74hbCxYRzW-131" value="&amp;nbsp;" style="text;whiteSpace=wrap;html=1;" parent="1" vertex="1">
          <mxGeometry x="860" y="180" width="40" height="40" as="geometry" />
        </mxCell>
      </root>
    </mxGraphModel>
  </diagram>
</mxfile>
